<svg id="Layer_1" data-name="Layer 1" xmlns="http://www.w3.org/2000/svg" viewBox="0 0 1000 1000"><title>drop</title><path d="M831.68,704.74c-13.76-93.83-57.56-167.47-122.4-233.7C629.18,389.21,561.7,315.5,500,219.11,438.3,315.5,370.82,389.21,290.72,471c-64.84,66.23-108.64,139.87-122.4,233.7-7.34,50-9.48,106.83,5.78,155.8C186.76,901.16,230.12,1000,281,1000c13.59,0,51-68,104.29-111.73,26-21.35,73.23-32.55,102-36.17a98.32,98.32,0,0,1,25.42,0c28.77,3.62,76,14.82,102,36.17C668,932,705.41,1000,719,1000c50.88,0,94.24-98.84,106.9-139.46C841.16,811.57,839,754.74,831.68,704.74Z"/></svg>