<?xml version="1.0" encoding="utf-8"?>
<!-- Generator: Adobe Illustrator 23.0.4, SVG Export Plug-In . SVG Version: 6.00 Build 0)  -->
<svg version="1.1" id="Layer_1" xmlns="http://www.w3.org/2000/svg" xmlns:xlink="http://www.w3.org/1999/xlink" x="0px" y="0px"
	 viewBox="0 0 1000 1000" style="enable-background:new 0 0 1000 1000;" xml:space="preserve">
<title>drop</title>
<path d="M325.9,358.57c-12.66-40.62-56.02-139.46-106.9-139.46c-13.59,0-51,68-104.29,111.73c-26,21.35-73.23,32.55-102,36.17
	c-8.44,1.1-16.98,1.1-25.42,0c-28.77-3.62-76-14.82-102-36.17C-168,287.11-205.41,219.11-219,219.11
	c-50.88,0-94.24,98.84-106.9,139.5c-15.26,48.97-13.12,105.8-5.78,155.8c13.76,93.83,57.56,167.47,122.4,233.7
	C-129.18,829.9-61.7,903.61,0,1000c61.7-96.39,129.18-170.1,209.28-251.93c64.84-66.23,108.64-139.87,122.4-233.7
	C339,464.37,341.16,407.54,325.9,358.57z"/>
</svg>
