<?xml version="1.0" encoding="utf-8"?>
<!-- Generator: Adobe Illustrator 23.0.4, SVG Export Plug-In . SVG Version: 6.00 Build 0)  -->
<svg version="1.1" id="Layer_1" xmlns="http://www.w3.org/2000/svg" xmlns:xlink="http://www.w3.org/1999/xlink" x="0px" y="0px"
	 viewBox="0 0 1280 1280" style="enable-background:new 0 0 1280 1280;" xml:space="preserve">
<g transform="translate(0.000000,1280.000000) scale(0.100000,-0.100000)">
	<path d="M12326.9,3795.5c-5.3,8.4-55.9,158.2-113.9,332.1c-460.8,1395-1125,2849-1838.9,4022.5
		c-99.1,163.4-282.6,450.2-353.2,553.6c-32.7,46.4-89.6,129.7-127.6,184.5c-119.1,175-392.2,536.7-540.9,717
		c-1138.7,1390.7-2366.1,2184.7-3669.3,2376.6c-943.7,139.2-1934.8-45.3-2943.9-549.3c-299.4-149.7-531.4-285.7-862.5-505.1
		c-125.5-83.3-232-151.8-235.1-151.8c-12.7,0-276.3,238.3-431.2,390.1c-322.6,315.3-554.6,611.5-689.6,880.4
		c-65.4,130.7-70.6,143.4-165.5,395.4c-43.2,112.8-87.5,227.7-100.2,255.2c-28.5,65.4-74.9,103.3-124.4,103.3
		c-109.7-1.1-163.4-102.3-109.7-207.7c11.6-22.1,53.8-130.7,94.9-241.5c161.3-434.4,291-665.3,558.8-986.9
		c117-140.2,421.8-450.2,603.1-612.6c78-69.6,143.4-130.7,145.5-135s-9.5-16.9-24.3-26.4c-26.4-16.9-27.4-19-8.4-26.4
		c20-7.4,20-10.5-4.2-184.5c-94.9-712.8-114.9-1435-54.8-2028.7c213-2121.4,1357-3576.5,3415.2-4344.1
		C6087,3506.6,7871,3311.5,9865.9,3447.5c791.8,53.8,1551,149.7,2264.8,285.7c91.7,17.9,174,29.5,181.4,26.4
		C12330,3753.3,12338.5,3774.4,12326.9,3795.5z"/>
</g>
</svg>
