<?xml version="1.0" encoding="utf-8"?>
<!-- Generator: Adobe Illustrator 22.1.0, SVG Export Plug-In . SVG Version: 6.00 Build 0)  -->
<svg version="1.1" id="Layer_1" xmlns="http://www.w3.org/2000/svg" xmlns:xlink="http://www.w3.org/1999/xlink" x="0px" y="0px"
	 viewBox="0 0 1000 1000" style="enable-background:new 0 0 1000 1000;" xml:space="preserve">
<g>
	<path d="M-0.2,191.7L-0.2,191.7C-0.2,191.7-0.5,191.7-0.2,191.7z"/>
	<path d="M0.2,149c-1.4,0-41.4,60.1-45.3,72.7c-0.2,0.7-0.2,1.4-0.4,2.1l-128.1,546.3c-1.4,5.8-0.6,11.9,2,17.2L-64.8,1000l64.8,4v0
		l0.2,0l0.2,0v0l64.8-4L172,787.3c2.7-5.3,3.4-11.4,2-17.2L45.9,223.8c-0.2-0.7-0.2-1.4-0.4-2.1C41.5,209.1,1.6,149,0.2,149z"/>
</g>
</svg>
