<?xml version="1.0" encoding="utf-8"?>
<!-- Generator: Adobe Illustrator 23.0.4, SVG Export Plug-In . SVG Version: 6.00 Build 0)  -->
<svg version="1.1" id="Layer_1" xmlns="http://www.w3.org/2000/svg" xmlns:xlink="http://www.w3.org/1999/xlink" x="0px" y="0px"
	 viewBox="0 0 1000 1000" style="enable-background:new 0 0 1000 1000;" xml:space="preserve">
<path d="M109.1,249.13C122.93,278.3,131,313.32,131,351c0,101.62-58.65,184-131,184s-131-82.38-131-184
	c0-37.68,8.07-72.7,21.9-101.87C-216.36,319.16-238.31,487.19-230,541c11.07,71.64,70.98,101.15,143,232
	c48.99,89.01,73.69,170.61,87,227c13.31-56.39,38.01-137.99,87-227c72.02-130.85,131.93-160.36,143-232
	C238.31,487.19,216.36,319.16,109.1,249.13z"/>
</svg>
