<?xml version="1.0" encoding="utf-8"?>
<!-- Generator: Adobe Illustrator 23.0.4, SVG Export Plug-In . SVG Version: 6.00 Build 0)  -->
<svg version="1.1" id="Layer_1" xmlns="http://www.w3.org/2000/svg" xmlns:xlink="http://www.w3.org/1999/xlink" x="0px" y="0px"
	 viewBox="0 0 1000 1000" style="enable-background:new 0 0 1000 1000;" xml:space="preserve">
<path d="M211.95,378.18c-8.81,120.14-36.85,214.44-78.36,299.25C82.31,782.2,39.1,876.58-0.4,1000
	c-39.5-123.42-82.7-217.8-133.99-322.57c-41.51-84.81-69.55-179.11-78.36-299.25c-4.7-64.02-6.07-136.79,3.7-199.49
	c8.11-52.02,35.87-178.58,68.44-178.58c8.7,0,32.65,87.07,66.77,143.07c16.66,27.34,46.89,41.68,65.3,46.32
	c5.58,1.4,10.7,1.4,16.28,0c18.42-4.64,48.64-18.98,65.3-46.32c34.12-56,58.07-143.07,66.77-143.07
	c32.57,0,60.33,126.56,68.44,178.58C218.02,241.39,216.65,314.16,211.95,378.18z"/>
</svg>
