<?xml version="1.0" encoding="utf-8"?>
<!-- Generator: Adobe Illustrator 23.0.4, SVG Export Plug-In . SVG Version: 6.00 Build 0)  -->
<svg version="1.1" id="Layer_1" xmlns="http://www.w3.org/2000/svg" xmlns:xlink="http://www.w3.org/1999/xlink" x="0px" y="0px"
	 viewBox="0 0 1000 1000" style="enable-background:new 0 0 1000 1000;" xml:space="preserve">
<g>
	<g transform="translate(0.000000,511.000000) scale(0.100000,-0.100000)">
		<path d="M9003.3-4790l34.9,122.2c19.4,67.9,48.4,194,65.9,279.3c58.2,275.4,13.6,818.5-104.7,1328.6l-33,145.5l-195.9,69.8
			c-275.5,98.9-552.8,226.9-890.3,407.3c-318.1,170.7-420.9,240.5-174.6,118.3c217.2-108.6,574.1-246.4,752.5-292.9
			c308.4-79.5,576-95,576-31c0,13.6-23.3,102.8-50.4,195.9c-60.2,213.4-190.1,492.7-322,690.5c-96.9,149.4-98.9,151.3-178.4,151.3
			c-407.3,0-1425.5,254.1-2247.9,562.5c-188.2,69.8-110.6,64,133.8-9.7c797.2-242.4,1606-386,1926-343.3l104.7,13.6l-97,116.4
			c-143.5,172.6-459.7,469.4-653.6,612.9c-155.2,116.3-836,550.8-1495.4,958.1c-227,139.7-281.3,164.9-351.1,164.9
			c-137.7,0-539.2,56.3-958.1,135.8c-556.7,106.7-816.6,159.1-808.8,168.8c3.9,3.9,116.4-9.7,248.3-31
			c434.4-69.8,950.3-98.9,1080.3-62.1c40.7,9.7,25.2,23.3-116.4,97c-440.3,234.7-921.3,547-1324.7,861.2
			c-128,98.9-302.6,223.1-387.9,273.5c-312.3,188.1-1092,744.8-1454.7,1039.6c-73.7,62-226.9,193.9-339.4,296.7
			c-112.5,102.8-205.6,182.4-209.5,180.4c-15.6-15.6,89.1-322-11.7-95.1c-178.4,395.6-258,667.2-343.3,1159.8
			c-42.7,244.4-81.5,467.4-87.3,494.6c-9.7,42.7-23.2,27.2-95-118.3l-85.3-166.8l58.2-250.2c31-137.7,100.8-378.2,153.2-533.4
			c108.6-316.1,114.4-376.3,56.2-451.9c-77.6-98.9-192-58.1-259.9,91.2l-46.5,100.8v-67.9c-2-85.4,56.2-182.4,137.7-232.8
			c77.6-46.6,203.7-50.5,263.8-7.8c25.2,17.5,48.5,27.2,52.4,23.3c3.8-3.9,13.5-73.7,21.3-155.2c21.3-236.7-40.8-323.9-228.9-327.8
			c-75.6,0-79.5-1.9-34.9-19.4c87.3-36.8,209.5-27.1,258,17.5c25.3,23.3,50.5,42.7,56.3,42.7c5.9,0,15.5-36.8,23.3-79.5
			c23.3-141.5,215.3-698.2,339.4-977.5c197.8-444.1,426.7-849.5,746.7-1328.6c135.7-201.7,232.7-320.1,428.6-514
			C3411.4-445.3,4098-998,4163.9-957.3c17.4,11.6,52.3,186.2,69.8,368.5c11.6,131.9-19.4,556.7-54.3,704.1
			c-23.3,97-27.1,102.8-246.3,258C3205.8,895,3615,644.8,4825.3-156.2c773.9-510.1,1441.1-993.1,1939.6-1406.2
			c403.5-331.7,995-964,1239.4-1322.8c67.9-100.9,9.7-36.9-180.4,197.8c-215.3,265.7-535.3,599.3-812.7,847.6
			c-219.2,194-748.7,622.6-770,622.6c-7.8,0,0-58.2,15.5-131.9c17.5-87.3,23.3-203.7,17.5-353c-9.7-252.1-50.4-389.8-157.1-531.4
			l-64-81.5l201.7-95c112.5-52.3,308.4-162.9,436.4-246.3c236.6-155.2,746.7-533.4,791.3-587.7c52.3-62,69.8-31,95,159.1
			c38.8,290.9,52.3,290.9,65.9-3.9c9.7-230.8,15.6-273.5,46.6-294.8c238.6-174.5,597.4-546.9,1041.6-1080.3L9003.3-4790z"/>
		<path d="M5948.5-2196.7c108.6,56.2,180.4,170.7,225,362.7c34.9,159,58.2,451.9,40.7,564.4c-13.6,87.3-15.5,89.2-298.7,289
			C5477.1-668.3,4204.8,179.3,4204.8,159.9c0-9.7,7.8-21.4,17.5-27.2c31-21.3,118.3-290.9,147.4-467.4
			c21.3-118.3,29-281.2,27.1-500.4l-3.9-325.8l752.5-531.4C5876.6-2208.3,5899.9-2223.8,5948.5-2196.7z"/>
	</g>
</g>
</svg>
