<svg id="Layer_1" data-name="Layer 1" xmlns="http://www.w3.org/2000/svg" viewBox="0 0 348.96 812.4"><title>poker</title><path d="M-.2,191.7Z" transform="translate(174.28 -191.6)"/><path d="M174,770.1,45.9,223.8c-.2-.7-.2-1.4-.4-2.1-4-12.7-5.7-29.6-30.6-29.9-9.2-.1-12.9-.1-14.3-.2H-.2c-1.4,0-5.2.1-14.3.2-24.9.3-26.7,17.2-30.6,29.9-.2.7-.2,1.4-.4,2.1L-173.6,770.1a25.55,25.55,0,0,0,2,17.2L-64.8,1000,0,1004H.4l64.8-4L172,787.3A25.55,25.55,0,0,0,174,770.1Z" transform="translate(174.28 -191.6)"/><path d="M.5,191.7Z" transform="translate(174.28 -191.6)"/></svg>